HIERARCHY
ROOT Hips
{
	OFFSET -0.148888 88.448799 3.733362
	CHANNELS 6 Xposition Yposition Zposition Zrotation Yrotation Xrotation 
	JOINT Spine
	{
		OFFSET 0.000000 8.814246 -2.080107
		CHANNELS 3 Zrotation Yrotation Xrotation
		JOINT Spine1
		{
			OFFSET 0.000000 8.844141 0.000000
			CHANNELS 3 Zrotation Yrotation Xrotation
			JOINT Spine2
			{
				OFFSET -0.000000 11.682268 -0.000000
				CHANNELS 3 Zrotation Yrotation Xrotation
				JOINT Spine3
				{
					OFFSET -0.000000 11.746700 -0.000000
					CHANNELS 3 Zrotation Yrotation Xrotation
					JOINT Neck
					{
						OFFSET 0.000000 17.658264 -0.000000
						CHANNELS 3 Zrotation Yrotation Xrotation
						JOINT Neck1
						{
							OFFSET 0.000000 5.101515 0.000000
							CHANNELS 3 Zrotation Yrotation Xrotation
							JOINT Head
							{
								OFFSET -0.000000 5.101515 -0.000000
								CHANNELS 3 Zrotation Yrotation Xrotation
								JOINT HeadEnd
								{
									OFFSET 0.000000 11.655085 -0.000000
									CHANNELS 3 Zrotation Yrotation Xrotation
									End Site
									{
										OFFSET 0.000000 0.000000 0.000000
									}
								}
							}
						}
					}
					JOINT RightShoulder
					{
						OFFSET -2.625389 11.175210 -0.000000
						CHANNELS 3 Zrotation Yrotation Xrotation
						JOINT RightArm
						{
							OFFSET -0.000000 10.434715 0.000000
							CHANNELS 3 Zrotation Yrotation Xrotation
							JOINT RightForeArm
							{
								OFFSET 0.000000 29.628420 0.000000
								CHANNELS 3 Zrotation Yrotation Xrotation
								JOINT RightHand
								{
									OFFSET 0.000000 22.857611 0.000000
									CHANNELS 3 Zrotation Yrotation Xrotation
									JOINT RightHandThumb1
									{
										OFFSET -2.867323 3.959563 2.944291
										CHANNELS 3 Zrotation Yrotation Xrotation
										JOINT RightHandThumb2
										{
											OFFSET -0.000000 3.350399 0.000000
											CHANNELS 3 Zrotation Yrotation Xrotation
											JOINT RightHandThumb3
											{
												OFFSET -0.000000 3.756509 0.000000
												CHANNELS 3 Zrotation Yrotation Xrotation
												JOINT RightHandThumb4
												{
													OFFSET 0.000000 3.147345 0.000000
													CHANNELS 3 Zrotation Yrotation Xrotation
													End Site
													{
														OFFSET 0.000000 0.000000 0.000000
													}
												}
											}
										}
									}
									JOINT RightHandIndex1
									{
										OFFSET -0.086752 10.030893 2.345280
										CHANNELS 3 Zrotation Yrotation Xrotation
										JOINT RightHandIndex2
										{
											OFFSET 0.000000 4.061090 -0.000000
											CHANNELS 3 Zrotation Yrotation Xrotation
											JOINT RightHandIndex3
											{
												OFFSET -0.000000 3.248873 0.000000
												CHANNELS 3 Zrotation Yrotation Xrotation
												JOINT RightHandIndex4
												{
													OFFSET 0.000000 2.639709 -0.000000
													CHANNELS 3 Zrotation Yrotation Xrotation
													End Site
													{
														OFFSET 0.000000 0.000000 0.000000
													}
												}
											}
										}
									}
									JOINT RightHandMiddle1
									{
										OFFSET 0.104102 9.502952 0.006768
										CHANNELS 3 Zrotation Yrotation Xrotation
										JOINT RightHandMiddle2
										{
											OFFSET 0.000000 4.568727 0.000000
											CHANNELS 3 Zrotation Yrotation Xrotation
											JOINT RightHandMiddle3
											{
												OFFSET 0.000000 3.654981 -0.000000
												CHANNELS 3 Zrotation Yrotation Xrotation
												JOINT RightHandMiddle4
												{
													OFFSET -0.000000 2.741236 0.000000
													CHANNELS 3 Zrotation Yrotation Xrotation
													End Site
													{
														OFFSET 0.000000 0.000000 0.000000
													}
												}
											}
										}
									}
									JOINT RightHandRing1
									{
										OFFSET 0.086752 8.921708 -2.267442
										CHANNELS 3 Zrotation Yrotation Xrotation
										JOINT RightHandRing2
										{
											OFFSET -0.000000 4.061090 0.000000
											CHANNELS 3 Zrotation Yrotation Xrotation
											JOINT RightHandRing3
											{
												OFFSET -0.000000 3.654981 0.000000
												CHANNELS 3 Zrotation Yrotation Xrotation
												JOINT RightHandRing4
												{
													OFFSET -0.000000 2.741236 0.000000
													CHANNELS 3 Zrotation Yrotation Xrotation
													End Site
													{
														OFFSET 0.000000 0.000000 0.000000
													}
												}
											}
										}
									}
									JOINT RightHandPinky1
									{
										OFFSET -0.173504 7.976997 -4.467199
										CHANNELS 3 Zrotation Yrotation Xrotation
										JOINT RightHandPinky2
										{
											OFFSET -0.000000 3.350399 0.000000
											CHANNELS 3 Zrotation Yrotation Xrotation
											JOINT RightHandPinky3
											{
												OFFSET -0.000000 2.842763 0.000000
												CHANNELS 3 Zrotation Yrotation Xrotation
												JOINT RightHandPinky4
												{
													OFFSET 0.000000 2.639709 -0.000000
													CHANNELS 3 Zrotation Yrotation Xrotation
													End Site
													{
														OFFSET 0.000000 0.000000 0.000000
													}
												}
											}
										}
									}
									JOINT RightForeArmEnd
									{
										OFFSET 0.000000 0.000000 0.000000
										CHANNELS 3 Zrotation Yrotation Xrotation
										End Site
										{
											OFFSET 0.000000 0.000000 0.000000
										}
									}
								}
								JOINT RightArmEnd
								{
									OFFSET 0.000000 0.000000 0.000000
									CHANNELS 3 Zrotation Yrotation Xrotation
									End Site
									{
										OFFSET 0.000000 0.000000 0.000000
									}
								}
							}
						}
					}
					JOINT LeftShoulder
					{
						OFFSET 2.625389 11.175210 0.000000
						CHANNELS 3 Zrotation Yrotation Xrotation
						JOINT LeftArm
						{
							OFFSET -0.000000 10.813635 -0.000000
							CHANNELS 3 Zrotation Yrotation Xrotation
							JOINT LeftForeArm
							{
								OFFSET 0.000000 28.724781 0.000000
								CHANNELS 3 Zrotation Yrotation Xrotation
								JOINT LeftHand
								{
									OFFSET 0.644384 25.716167 -0.328871
									CHANNELS 3 Zrotation Yrotation Xrotation
									JOINT LeftHandThumb1
									{
										OFFSET 2.867323 3.959563 2.944291
										CHANNELS 3 Zrotation Yrotation Xrotation
										JOINT LeftHandThumb2
										{
											OFFSET 0.000000 3.350399 -0.000000
											CHANNELS 3 Zrotation Yrotation Xrotation
											JOINT LeftHandThumb3
											{
												OFFSET 0.000000 3.756509 0.000000
												CHANNELS 3 Zrotation Yrotation Xrotation
												JOINT LeftHandThumb4
												{
													OFFSET -0.000000 3.100000 0.000000
													CHANNELS 3 Zrotation Yrotation Xrotation
													End Site
													{
														OFFSET 0.000000 0.000000 0.000000
													}
												}
											}
										}
									}
									JOINT LeftHandIndex1
									{
										OFFSET 0.086752 10.030893 2.345280
										CHANNELS 3 Zrotation Yrotation Xrotation
										JOINT LeftHandIndex2
										{
											OFFSET -0.000000 4.061090 0.000000
											CHANNELS 3 Zrotation Yrotation Xrotation
											JOINT LeftHandIndex3
											{
												OFFSET 0.000000 3.248873 0.000000
												CHANNELS 3 Zrotation Yrotation Xrotation
												JOINT LeftHandIndex4
												{
													OFFSET -0.000000 2.639709 -0.000000
													CHANNELS 3 Zrotation Yrotation Xrotation
													End Site
													{
														OFFSET 0.000000 0.000000 0.000000
													}
												}
											}
										}
									}
									JOINT LeftHandMiddle1
									{
										OFFSET -0.104102 9.502952 0.006768
										CHANNELS 3 Zrotation Yrotation Xrotation
										JOINT LeftHandMiddle2
										{
											OFFSET -0.000000 4.568727 -0.000000
											CHANNELS 3 Zrotation Yrotation Xrotation
											JOINT LeftHandMiddle3
											{
												OFFSET 0.000000 3.654981 0.000000
												CHANNELS 3 Zrotation Yrotation Xrotation
												JOINT LeftHandMiddle4
												{
													OFFSET 0.000000 2.741236 0.000000
													CHANNELS 3 Zrotation Yrotation Xrotation
													End Site
													{
														OFFSET 0.000000 0.000000 0.000000
													}
												}
											}
										}
									}
									JOINT LeftHandRing1
									{
										OFFSET -0.086752 8.921708 -2.267442
										CHANNELS 3 Zrotation Yrotation Xrotation
										JOINT LeftHandRing2
										{
											OFFSET 0.000000 4.061090 0.000000
											CHANNELS 3 Zrotation Yrotation Xrotation
											JOINT LeftHandRing3
											{
												OFFSET 0.000000 3.654981 0.000000
												CHANNELS 3 Zrotation Yrotation Xrotation
												JOINT LeftHandRing4
												{
													OFFSET -0.000000 2.741236 0.000000
													CHANNELS 3 Zrotation Yrotation Xrotation
													End Site
													{
														OFFSET 0.000000 0.000000 0.000000
													}
												}
											}
										}
									}
									JOINT LeftHandPinky1
									{
										OFFSET 0.173504 7.976997 -4.467199
										CHANNELS 3 Zrotation Yrotation Xrotation
										JOINT LeftHandPinky2
										{
											OFFSET -0.000000 3.350399 -0.000000
											CHANNELS 3 Zrotation Yrotation Xrotation
											JOINT LeftHandPinky3
											{
												OFFSET -0.000000 2.842763 0.000000
												CHANNELS 3 Zrotation Yrotation Xrotation
												JOINT LeftHandPinky4
												{
													OFFSET 0.000000 2.639709 0.000000
													CHANNELS 3 Zrotation Yrotation Xrotation
													End Site
													{
														OFFSET 0.000000 0.000000 0.000000
													}
												}
											}
										}
									}
									JOINT LeftForeArmEnd
									{
										OFFSET 0.000000 0.000000 0.000000
										CHANNELS 3 Zrotation Yrotation Xrotation
										End Site
										{
											OFFSET 0.000000 0.000000 0.000000
										}
									}
								}
								JOINT LeftArmEnd
								{
									OFFSET 0.000000 0.000000 0.000000
									CHANNELS 3 Zrotation Yrotation Xrotation
									End Site
									{
										OFFSET 0.000000 0.000000 0.000000
									}
								}
							}
						}
					}
				}
			}
		}
	}
	JOINT RightUpLeg
	{
		OFFSET -11.289943 -0.000000 -0.000000
		CHANNELS 3 Zrotation Yrotation Xrotation
		JOINT RightLeg
		{
			OFFSET 0.000000 -38.200325 0.000000
			CHANNELS 3 Zrotation Yrotation Xrotation
			JOINT RightFoot
			{
				OFFSET 0.000000 -39.900856 -0.000000
				CHANNELS 3 Zrotation Yrotation Xrotation
				JOINT RightToeBase
				{
					OFFSET 0.000000 0.000000 15.261641
					CHANNELS 3 Zrotation Yrotation Xrotation
					JOINT RightToeBaseEnd
					{
						OFFSET -0.000000 -0.000000 7.370709
						CHANNELS 3 Zrotation Yrotation Xrotation
						End Site
						{
							OFFSET 0.000000 0.000000 0.000000
						}
					}
				}
				JOINT RightLegEnd
				{
					OFFSET 0.000000 0.000000 0.000000
					CHANNELS 3 Zrotation Yrotation Xrotation
					End Site
					{
						OFFSET 0.000000 0.000000 0.000000
					}
				}
			}
			JOINT RightUpLegEnd
			{
				OFFSET 0.000000 0.000000 0.000000
				CHANNELS 3 Zrotation Yrotation Xrotation
				End Site
				{
					OFFSET 0.000000 0.000000 0.000000
				}
			}
		}
	}
	JOINT LeftUpLeg
	{
		OFFSET 11.315661 -0.000000 0.000000
		CHANNELS 3 Zrotation Yrotation Xrotation
		JOINT LeftLeg
		{
			OFFSET -0.000000 -38.200325 -0.000000
			CHANNELS 3 Zrotation Yrotation Xrotation
			JOINT LeftFoot
			{
				OFFSET 0.000000 -39.900856 -0.000000
				CHANNELS 3 Zrotation Yrotation Xrotation
				JOINT LeftToeBase
				{
					OFFSET 0.000000 0.000000 15.261641
					CHANNELS 3 Zrotation Yrotation Xrotation
					JOINT LeftToeBaseEnd
					{
						OFFSET 0.000000 -0.000000 7.539996
						CHANNELS 3 Zrotation Yrotation Xrotation
						End Site
						{
							OFFSET 0.000000 0.000000 0.000000
						}
					}
				}
				JOINT LeftLegEnd
				{
					OFFSET 0.000000 0.000000 0.000000
					CHANNELS 3 Zrotation Yrotation Xrotation
					End Site
					{
						OFFSET 0.000000 0.000000 0.000000
					}
				}
			}
			JOINT LeftUpLegEnd
			{
				OFFSET 0.000000 0.000000 0.000000
				CHANNELS 3 Zrotation Yrotation Xrotation
				End Site
				{
					OFFSET 0.000000 0.000000 0.000000
				}
			}
		}
	}
}
MOTION
Frames: 5
Frame Time: 0.016667
-0.148888 88.448799 3.733362 -1.071294 -0.165774 -8.795275 1.977979 -0.454280 7.201230 -1.571631 0.301330 1.174068 -0.240323 -1.599208 1.542572 -0.148160 -0.486667 0.007339 2.983474 2.070139 7.902873 0.724172 3.669763 -1.586659 -0.964287 -0.706352 -15.315372 0.000000 0.000000 0.000000 95.648170 -1.072138 10.953419 54.864632 -56.995480 11.180590 -0.098399 6.046414 28.930777 11.922408 10.375718 -3.733858 10.937046 -1.865515 39.738762 0.000000 0.000000 -26.639997 0.000000 0.000000 -18.499998 0.000000 0.000000 0.000000 14.917025 -0.000000 -4.046403 10.441919 0.000000 0.000000 10.441919 0.000000 0.000000 0.000000 0.000000 0.000000 13.016307 0.000000 -6.907734 9.111417 0.000000 0.000000 9.111417 0.000000 0.000000 0.000000 0.000000 0.000000 12.065241 0.000000 -8.902472 8.445668 0.000000 0.000000 8.445668 0.000000 0.000000 0.000000 0.000000 0.000000 10.481709 -0.000000 -12.391636 7.337195 0.000000 0.000000 7.337195 0.000000 0.000000 0.000000 0.000000 0.000000 0.000000 0.000000 0.000000 0.000000 0.000000 0.000000 -93.027763 0.366341 6.512349 -63.928600 41.960018 -1.341277 -0.560537 -1.312608 43.460899 -8.089611 -4.192083 -9.728065 -12.135554 1.950835 39.216904 0.000000 0.000000 -29.519997 0.000000 0.000000 -20.499998 0.000000 0.000000 0.000000 -21.031582 -0.000000 -5.234027 -14.722108 0.000000 0.000000 -14.722108 0.000000 0.000000 0.000000 0.000000 0.000000 -18.543806 0.000000 -7.204970 -12.980664 0.000000 0.000000 -12.980664 0.000000 0.000000 0.000000 0.000000 0.000000 -16.284643 0.000000 -9.077846 -11.399253 0.000000 0.000000 -11.399253 0.000000 0.000000 0.000000 0.000000 0.000000 -12.854185 -0.000000 -11.003169 -8.997928 0.000000 0.000000 -8.997928 0.000000 0.000000 0.000000 0.000000 0.000000 0.000000 0.000000 0.000000 0.000000 0.000000 0.000000 -6.742904 -12.334049 11.218077 -0.100748 -1.572749 3.630219 4.062670 -8.851838 22.145350 -1.149408 2.248072 -19.515566 0.000000 0.000000 0.000000 0.000000 0.000000 0.000000 0.000000 0.000000 0.000000 7.149309 -3.984354 4.916173 0.269636 1.266636 11.990840 -4.307302 12.293428 17.657980 1.482724 -1.272024 -21.386477 0.000000 0.000000 0.000000 0.000000 0.000000 0.000000 0.000000 0.000000 0.000000 
-0.067956 88.506279 3.438847 -1.500807 -0.528439 -9.332435 2.283959 -0.323015 6.366121 -0.474138 0.114920 3.456717 -0.061870 -0.909926 0.571855 -1.236642 -0.147949 2.442306 4.256649 0.276413 5.244922 1.146372 2.193896 -2.631333 -0.614998 -1.448822 -17.442022 0.000000 0.000000 0.000000 93.326256 -0.634798 10.926845 57.782982 -51.695389 10.452861 -0.475129 7.773952 29.996550 13.295402 7.333779 -1.718700 11.078447 -1.870652 39.734543 -0.000001 0.000033 -26.888233 0.000010 0.000044 -18.625587 0.000010 0.000002 -0.000034 15.550250 0.006216 -4.547444 10.575546 -0.000692 -0.068650 10.634008 0.019992 -0.075161 -0.000025 0.000027 -0.000030 13.434171 0.001574 -6.489416 9.421975 -0.005211 -0.025480 9.488782 0.009397 -0.017527 0.000025 0.000037 0.000013 12.271942 -0.043252 -7.459807 8.610489 0.021244 -0.031364 8.545526 0.006789 -0.020766 -0.000000 -0.000209 0.000002 11.134366 -0.006509 -9.927162 7.772371 0.080932 -0.144902 7.570639 0.027678 -0.136259 -0.000319 -0.000002 0.000012 0.000000 0.000000 0.000000 0.000000 0.000000 0.000000 -91.804588 0.405373 7.470761 -62.063507 40.654404 1.977133 0.328890 -2.492276 43.605637 -7.482982 -4.425368 -10.291692 -12.036792 1.922665 39.275368 0.000002 0.000032 -29.116009 -0.000040 -0.000026 -20.357645 -0.000727 -0.000004 0.001490 -20.256891 0.060341 -4.994473 -13.488924 0.073624 0.433837 -13.754696 0.096339 0.386130 0.000016 0.000497 0.000008 -18.244894 0.028159 -6.428586 -12.419662 0.016661 0.171377 -12.211267 0.026653 0.140335 0.000840 -0.000048 -0.000045 -15.852296 0.020238 -8.054300 -10.777461 -0.011885 -0.224057 -10.756324 -0.027434 -0.162552 -0.000532 0.000004 0.000010 -12.109648 0.028928 -9.502976 -8.692693 -0.049962 -0.442542 -8.917325 -0.094918 -0.377385 -0.000231 -0.000007 -0.000040 0.000000 0.000000 0.000000 0.000000 0.000000 0.000000 -7.437223 -12.039560 11.766909 -0.212919 -1.154476 5.472361 3.827261 -9.714594 21.044020 -1.090956 1.591254 -17.886570 0.000000 0.000000 0.000000 0.000000 0.000000 0.000000 0.000000 0.000000 0.000000 8.703778 -0.744482 6.590895 0.231183 0.871106 13.415276 -4.682808 9.389053 18.381876 0.808725 -0.823192 -21.194361 0.000000 0.000000 0.000000 0.000000 0.000000 0.000000 0.000000 0.000000 0.000000 
-0.011354 88.483192 3.388552 -1.291153 -0.495663 -9.342231 2.115196 -0.292743 6.458770 -0.591472 0.139809 3.477164 0.037395 -1.013434 0.674981 -1.254100 -0.164420 2.465271 4.161023 0.274119 4.895182 1.167727 2.171233 -2.678787 -0.600953 -1.413726 -17.370956 0.000000 0.000000 0.000000 93.130585 -0.580663 11.063338 58.347210 -51.290516 10.076282 -0.489318 8.068803 30.328712 12.993312 6.855057 -1.936763 11.034450 -1.873383 39.747215 -0.000005 0.000043 -26.808216 0.000014 0.000037 -18.572582 0.000014 0.000005 -0.000044 15.586203 0.010929 -4.490462 10.578343 0.005498 -0.093298 10.640993 0.025982 -0.094948 -0.000009 0.000037 -0.000025 13.507038 0.003810 -6.411438 9.435726 -0.002689 -0.037121 9.493261 0.011986 -0.024305 0.000024 0.000019 0.000005 12.373310 -0.045274 -7.403325 8.643868 0.015812 -0.017434 8.580494 0.001944 -0.007417 -0.000012 -0.000088 -0.000007 11.306238 -0.012901 -9.871131 7.831470 0.065193 -0.083213 7.626989 0.011952 -0.085339 -0.000279 0.000005 0.000006 0.000000 0.000000 0.000000 0.000000 0.000000 0.000000 -91.486626 0.372846 7.486356 -62.595325 39.929550 1.731784 0.315737 -2.514234 43.652443 -6.935310 -4.770835 -10.691996 -12.009525 1.929009 39.270954 0.000009 0.000037 -29.066595 -0.000056 -0.000018 -20.322781 -0.000472 0.000002 0.001538 -20.258936 0.064905 -5.069330 -13.425004 0.069531 0.402244 -13.708841 0.092721 0.358007 0.000026 0.000373 0.000007 -18.326681 0.029478 -6.526228 -12.373180 0.015312 0.159164 -12.160389 0.026204 0.130800 0.001036 -0.000049 -0.000079 -16.055737 0.021497 -8.122765 -10.819361 -0.009909 -0.210788 -10.801429 -0.026764 -0.154428 -0.000622 0.000012 0.000010 -12.436644 0.029721 -9.548625 -8.775585 -0.045687 -0.403057 -8.970428 -0.092859 -0.349511 -0.000257 0.000005 -0.000058 0.000000 0.000000 0.000000 0.000000 0.000000 0.000000 -7.803228 -12.136929 11.572700 -0.214932 -1.159272 5.672621 4.048838 -9.448145 20.867643 -1.129212 1.595564 -17.840811 0.000000 0.000000 0.000000 0.000000 0.000000 0.000000 0.000000 0.000000 0.000000 8.488100 -0.523540 6.767117 0.228512 0.848535 13.125477 -4.642593 9.325020 18.361938 0.805619 -0.835112 -21.128784 0.000000 0.000000 0.000000 0.000000 0.000000 0.000000 0.000000 0.000000 0.000000 
0.025731 88.467506 3.352471 -1.115597 -0.497046 -9.336300 1.964570 -0.262337 6.538499 -0.673977 0.153350 3.455477 0.048340 -1.048031 0.809273 -1.272885 -0.172266 2.504737 3.918548 0.339126 4.664042 1.178952 2.145967 -2.705964 -0.589586 -1.398721 -17.354906 0.000000 0.000000 0.000000 92.994492 -0.537834 11.128835 58.759663 -50.836197 9.884090 -0.500541 8.379333 30.723238 12.872429 6.550697 -1.883108 10.998404 -1.871767 39.764023 -0.000004 0.000041 -26.749731 0.000012 0.000038 -18.521738 0.000015 0.000004 -0.000043 15.609683 0.013363 -4.495778 10.650220 0.011646 -0.119388 10.711229 0.032173 -0.117427 -0.000009 0.000036 -0.000025 13.544355 0.003687 -6.369262 9.521084 0.000134 -0.047922 9.564718 0.014470 -0.031894 0.000023 0.000014 0.000006 12.389701 -0.046119 -7.348754 8.715417 0.011089 -0.007392 8.656909 -0.002059 0.002841 -0.000010 0.000049 -0.000007 11.299233 -0.017399 -9.770370 7.903146 0.051731 -0.042974 7.703111 -0.000820 -0.052866 -0.000236 0.000004 0.000000 0.000000 0.000000 0.000000 0.000000 0.000000 0.000000 -91.211967 0.347375 7.462651 -62.929951 39.332897 1.549700 0.288872 -2.582358 43.688290 -6.784156 -4.816573 -10.935301 -11.971432 1.930025 39.276196 0.000008 0.000036 -29.005753 -0.000064 -0.000018 -20.276157 -0.000335 0.000002 0.001571 -20.170849 0.065736 -5.091240 -13.401670 0.066269 0.371124 -13.697567 0.089364 0.330539 0.000024 0.000267 0.000009 -18.291691 0.028732 -6.566317 -12.367582 0.014111 0.146155 -12.160975 0.025633 0.121071 0.001119 -0.000049 -0.000093 -16.127094 0.024336 -8.133539 -10.905656 -0.008071 -0.198553 -10.890078 -0.025918 -0.145758 -0.000558 0.000013 0.000009 -12.621825 0.032036 -9.526602 -8.900759 -0.041085 -0.365731 -9.082587 -0.090661 -0.320837 -0.000286 0.000004 -0.000058 0.000000 0.000000 0.000000 0.000000 0.000000 0.000000 -8.092138 -12.150676 11.475870 -0.214571 -1.159689 5.733443 4.185912 -9.240096 20.778826 -1.154074 1.593589 -17.828554 0.000000 0.000000 0.000000 0.000000 0.000000 0.000000 0.000000 0.000000 0.000000 8.303793 -0.318783 6.900730 0.226622 0.836164 12.942046 -4.612895 9.292971 18.333441 0.802693 -0.841014 -21.119223 0.000000 0.000000 0.000000 0.000000 0.000000 0.000000 0.000000 0.000000 0.000000 
0.041284 88.456131 3.336009 -0.988649 -0.532202 -9.316508 1.842319 -0.244434 6.585876 -0.734840 0.160695 3.383480 0.029689 -1.051417 0.958942 -1.303544 -0.160640 2.561540 3.672726 0.370428 4.486390 1.167113 2.070184 -2.737085 -0.567243 -1.386753 -17.423075 0.000000 0.000000 0.000000 92.918343 -0.523453 11.125157 58.973339 -50.446056 9.896770 -0.511120 8.633682 31.132082 12.811782 6.133669 -1.813285 10.982396 -1.869585 39.772659 -0.000004 0.000039 -26.749311 0.000010 0.000039 -18.503803 0.000015 0.000004 -0.000042 15.715590 0.015082 -4.513151 10.761712 0.013861 -0.138030 10.818567 0.034836 -0.133618 -0.000010 0.000035 -0.000024 13.658002 0.002092 -6.335874 9.646393 0.001196 -0.055252 9.676518 0.015803 -0.036895 0.000022 0.000011 0.000007 12.447530 -0.046140 -7.302843 8.814910 0.008936 -0.004979 8.761185 -0.003952 0.007041 -0.000008 0.000135 -0.000007 11.264141 -0.021470 -9.665575 7.988241 0.046008 -0.029501 7.793766 -0.005994 -0.041702 -0.000189 0.000004 -0.000003 0.000000 0.000000 0.000000 0.000000 0.000000 0.000000 -90.982697 0.322675 7.386617 -63.171623 38.923347 1.373039 0.281323 -2.710727 43.768227 -6.689114 -4.703147 -11.193789 -11.900266 1.924704 39.299419 0.000007 0.000035 -28.880016 -0.000071 -0.000018 -20.185236 -0.000326 0.000001 0.001561 -19.991413 0.065551 -5.016577 -13.385732 0.061477 0.336798 -13.690783 0.084354 0.299749 0.000022 0.000264 0.000011 -18.157516 0.026739 -6.525393 -12.363437 0.012229 0.130724 -12.163663 0.024265 0.109285 0.001163 -0.000049 -0.000098 -16.075411 0.027518 -8.095337 -10.968861 -0.004311 -0.181506 -10.951789 -0.023515 -0.133532 -0.000447 0.000013 0.000009 -12.672144 0.033092 -9.472988 -8.982695 -0.031696 -0.312548 -9.159765 -0.083836 -0.279974 -0.000316 0.000004 -0.000058 0.000000 0.000000 0.000000 0.000000 0.000000 0.000000 -8.313701 -12.103301 11.472043 -0.213321 -1.156273 5.702835 4.287274 -9.074542 20.718573 -1.171868 1.591089 -17.819284 0.000000 0.000000 0.000000 0.000000 0.000000 0.000000 0.000000 0.000000 0.000000 8.172583 -0.156348 7.017399 0.224914 0.828382 12.779914 -4.605681 9.245364 18.287453 0.805018 -0.846917 -21.103779 0.000000 0.000000 0.000000 0.000000 0.000000 0.000000 0.000000 0.000000 0.000000 
